<svg width="155" height="44" viewBox="0 0 155 44" fill="none" xmlns="http://www.w3.org/2000/svg">
<g clip-path="url(#clip0_1_339)">
<rect y="7" width="15" height="15" fill="#531CB3"/>
<rect x="15" y="7" width="15" height="15" fill="#F0E9FC"/>
<rect x="15" y="22" width="15" height="15" fill="#531CB3"/>
<rect y="22" width="15" height="15" fill="#F0E9FC"/>
</g>
<rect x="1.5" y="8.5" width="27" height="27" rx="6.5" stroke="#531CB3" stroke-width="3"/>
<path d="M50.336 33.352C49.44 33.352 48.5227 33.2773 47.584 33.128C46.6667 33 45.7813 32.808 44.928 32.552C44.096 32.296 43.3493 31.976 42.688 31.592C42.2187 31.336 41.888 31.0053 41.696 30.6C41.504 30.1733 41.4293 29.7467 41.472 29.32C41.536 28.8933 41.696 28.52 41.952 28.2C42.2293 27.8587 42.5707 27.6453 42.976 27.56C43.4027 27.4533 43.872 27.528 44.384 27.784C45.2587 28.2747 46.208 28.6373 47.232 28.872C48.2773 29.1067 49.312 29.224 50.336 29.224C51.8933 29.224 53.0027 28.9893 53.664 28.52C54.3253 28.0293 54.656 27.4213 54.656 26.696C54.656 26.0773 54.4213 25.5867 53.952 25.224C53.4827 24.8613 52.6613 24.552 51.488 24.296L47.872 23.528C45.824 23.1013 44.2987 22.376 43.296 21.352C42.3147 20.3067 41.824 18.9413 41.824 17.256C41.824 16.1893 42.048 15.2187 42.496 14.344C42.944 13.4693 43.5733 12.712 44.384 12.072C45.1947 11.432 46.1547 10.9413 47.264 10.6C48.3947 10.2587 49.632 10.088 50.976 10.088C52.1707 10.088 53.344 10.2373 54.496 10.536C55.648 10.8133 56.6613 11.2293 57.536 11.784C57.9627 12.04 58.2507 12.3707 58.4 12.776C58.5707 13.16 58.624 13.5547 58.56 13.96C58.5173 14.344 58.3573 14.6853 58.08 14.984C57.824 15.2827 57.4933 15.4747 57.088 15.56C56.6827 15.6453 56.192 15.5493 55.616 15.272C54.912 14.9093 54.1653 14.6427 53.376 14.472C52.5867 14.3013 51.776 14.216 50.944 14.216C50.048 14.216 49.28 14.3333 48.64 14.568C48.0213 14.8027 47.5413 15.1333 47.2 15.56C46.88 15.9867 46.72 16.4773 46.72 17.032C46.72 17.6507 46.944 18.152 47.392 18.536C47.84 18.92 48.6187 19.2293 49.728 19.464L53.344 20.232C55.4347 20.68 56.992 21.4053 58.016 22.408C59.04 23.3893 59.552 24.6907 59.552 26.312C59.552 27.3787 59.3387 28.3493 58.912 29.224C58.4853 30.0773 57.8667 30.8133 57.056 31.432C56.2453 32.0507 55.2747 32.5307 54.144 32.872C53.0133 33.192 51.744 33.352 50.336 33.352ZM68.148 33.352C66.8253 33.352 65.7267 33.1067 64.852 32.616C63.9773 32.1253 63.3267 31.3893 62.9 30.408C62.4947 29.4053 62.292 28.168 62.292 26.696V19.464C62.292 18.6533 62.4947 18.0453 62.9 17.64C63.3267 17.2347 63.924 17.032 64.692 17.032C65.46 17.032 66.0573 17.2347 66.484 17.64C66.9107 18.0453 67.124 18.6533 67.124 19.464V26.824C67.124 27.7627 67.316 28.4667 67.7 28.936C68.084 29.384 68.692 29.608 69.524 29.608C70.4413 29.608 71.188 29.288 71.764 28.648C72.3613 27.9867 72.66 27.1227 72.66 26.056V19.464C72.66 18.6533 72.8627 18.0453 73.268 17.64C73.6947 17.2347 74.292 17.032 75.06 17.032C75.8493 17.032 76.4467 17.2347 76.852 17.64C77.2787 18.0453 77.492 18.6533 77.492 19.464V30.824C77.492 32.4667 76.7133 33.288 75.156 33.288C74.388 33.288 73.8013 33.0747 73.396 32.648C72.9907 32.2213 72.788 31.6133 72.788 30.824V28.68L73.268 29.928C72.7987 31.016 72.1267 31.8587 71.252 32.456C70.3773 33.0533 69.3427 33.352 68.148 33.352ZM87.343 33.352C85.9777 33.352 84.7723 33.0213 83.727 32.36C82.703 31.6987 81.903 30.7493 81.327 29.512C80.751 28.2747 80.463 26.8133 80.463 25.128C80.463 23.4427 80.751 21.992 81.327 20.776C81.903 19.56 82.703 18.6213 83.727 17.96C84.7723 17.2987 85.9777 16.968 87.343 16.968C88.5803 16.968 89.6683 17.2667 90.607 17.864C91.567 18.4613 92.2177 19.24 92.559 20.2H92.207V12.616C92.207 11.8053 92.4097 11.1973 92.815 10.792C93.2203 10.3653 93.8177 10.152 94.607 10.152C95.375 10.152 95.9723 10.3653 96.399 10.792C96.8257 11.1973 97.039 11.8053 97.039 12.616V30.824C97.039 31.6133 96.8257 32.2213 96.399 32.648C95.9937 33.0747 95.407 33.288 94.639 33.288C93.871 33.288 93.2737 33.0747 92.847 32.648C92.4417 32.2213 92.239 31.6133 92.239 30.824V28.648L92.591 29.896C92.2923 30.9413 91.6523 31.784 90.671 32.424C89.711 33.0427 88.6017 33.352 87.343 33.352ZM88.783 29.736C89.487 29.736 90.095 29.5653 90.607 29.224C91.119 28.8827 91.5243 28.3813 91.823 27.72C92.1217 27.0373 92.271 26.1733 92.271 25.128C92.271 23.5707 91.951 22.4293 91.311 21.704C90.671 20.9573 89.8283 20.584 88.783 20.584C88.1003 20.584 87.4923 20.744 86.959 21.064C86.447 21.384 86.0417 21.8853 85.743 22.568C85.4657 23.2293 85.327 24.0827 85.327 25.128C85.327 26.6853 85.647 27.848 86.287 28.616C86.927 29.3627 87.759 29.736 88.783 29.736ZM108.314 33.352C106.629 33.352 105.157 33.0213 103.898 32.36C102.661 31.6987 101.701 30.7493 101.018 29.512C100.336 28.2747 99.9943 26.8133 99.9943 25.128C99.9943 23.8693 100.186 22.7387 100.57 21.736C100.954 20.7333 101.509 19.88 102.234 19.176C102.981 18.4507 103.866 17.9067 104.89 17.544C105.914 17.16 107.056 16.968 108.314 16.968C110 16.968 111.461 17.2987 112.698 17.96C113.957 18.6213 114.928 19.56 115.61 20.776C116.314 21.992 116.666 23.4427 116.666 25.128C116.666 26.408 116.464 27.5493 116.058 28.552C115.674 29.5547 115.12 30.4187 114.394 31.144C113.669 31.8693 112.784 32.424 111.738 32.808C110.714 33.1707 109.573 33.352 108.314 33.352ZM108.314 29.736C109.018 29.736 109.626 29.5653 110.138 29.224C110.65 28.8827 111.056 28.3813 111.354 27.72C111.653 27.0373 111.802 26.1733 111.802 25.128C111.802 23.5707 111.482 22.4293 110.842 21.704C110.202 20.9573 109.36 20.584 108.314 20.584C107.632 20.584 107.024 20.744 106.49 21.064C105.978 21.384 105.573 21.8853 105.274 22.568C104.997 23.2293 104.858 24.0827 104.858 25.128C104.858 26.6853 105.178 27.848 105.818 28.616C106.458 29.3627 107.29 29.736 108.314 29.736ZM122.038 33.288C121.249 33.288 120.641 33.0747 120.214 32.648C119.809 32.2213 119.606 31.6133 119.606 30.824V12.616C119.606 11.8053 119.809 11.1973 120.214 10.792C120.641 10.3653 121.249 10.152 122.038 10.152C122.806 10.152 123.393 10.3653 123.798 10.792C124.225 11.1973 124.438 11.8053 124.438 12.616V23.784H124.502L129.142 18.632C129.611 18.0987 130.038 17.704 130.422 17.448C130.827 17.1707 131.361 17.032 132.022 17.032C132.683 17.032 133.185 17.2027 133.526 17.544C133.889 17.8853 134.07 18.3013 134.07 18.792C134.091 19.2613 133.889 19.7413 133.462 20.232L128.566 25.704V23.88L134.006 30.152C134.411 30.6427 134.582 31.1333 134.518 31.624C134.475 32.1147 134.262 32.52 133.878 32.84C133.494 33.1387 133.003 33.288 132.406 33.288C131.681 33.288 131.094 33.1493 130.646 32.872C130.219 32.5947 129.782 32.168 129.334 31.592L124.502 26.216H124.438V30.824C124.438 32.4667 123.638 33.288 122.038 33.288ZM143.242 33.352C141.919 33.352 140.82 33.1067 139.946 32.616C139.071 32.1253 138.42 31.3893 137.994 30.408C137.588 29.4053 137.386 28.168 137.386 26.696V19.464C137.386 18.6533 137.588 18.0453 137.994 17.64C138.42 17.2347 139.018 17.032 139.786 17.032C140.554 17.032 141.151 17.2347 141.578 17.64C142.004 18.0453 142.218 18.6533 142.218 19.464V26.824C142.218 27.7627 142.41 28.4667 142.794 28.936C143.178 29.384 143.786 29.608 144.618 29.608C145.535 29.608 146.282 29.288 146.858 28.648C147.455 27.9867 147.754 27.1227 147.754 26.056V19.464C147.754 18.6533 147.956 18.0453 148.362 17.64C148.788 17.2347 149.386 17.032 150.154 17.032C150.943 17.032 151.54 17.2347 151.946 17.64C152.372 18.0453 152.586 18.6533 152.586 19.464V30.824C152.586 32.4667 151.807 33.288 150.25 33.288C149.482 33.288 148.895 33.0747 148.49 32.648C148.084 32.2213 147.882 31.6133 147.882 30.824V28.68L148.362 29.928C147.892 31.016 147.22 31.8587 146.346 32.456C145.471 33.0533 144.436 33.352 143.242 33.352Z" fill="#1A1A1A"/>
<defs>
<clipPath id="clip0_1_339">
<rect y="7" width="30" height="30" rx="8" fill="white"/>
</clipPath>
</defs>
</svg>
